<svg width="130" height="130" viewBox="0 0 130 130" fill="none" xmlns="http://www.w3.org/2000/svg">
<path fill-rule="evenodd" clip-rule="evenodd" d="M125.917 5.8457C116.987 66.9709 62.1416 96.6613 4.88565 103.412C3.90247 103.53 3.19556 104.423 3.31336 105.406C3.43117 106.389 4.32369 107.096 5.30688 106.978C64.1667 100.041 120.29 69.2001 129.469 6.36217C129.614 5.38351 128.935 4.47282 127.952 4.32784C126.973 4.18285 126.062 4.86252 125.917 5.8457Z" fill="#D1A6FD"/>
<path fill-rule="evenodd" clip-rule="evenodd" d="M6.171 105.069C8.71731 103.207 11.9387 100.906 12.2967 100.634C21.9971 93.2666 30.0348 84.7895 37.112 74.8443C37.6874 74.0379 37.497 72.9142 36.6905 72.3388C35.884 71.7634 34.7605 71.9537 34.1851 72.7602C27.3254 82.4063 19.5325 90.6298 10.122 97.7749C9.57374 98.1917 2.32885 103.361 0.942415 104.517C0.371533 104.988 0.194955 105.432 0.163239 105.541C-0.0270553 106.112 0.0861797 106.56 0.240227 106.886C0.416929 107.253 0.856303 107.788 1.7081 108.06C2.60067 108.341 4.58525 108.468 5.08364 108.54C12.6003 109.655 21.0865 110.244 28.8116 112.382C36.1787 114.421 42.8615 117.873 47.1477 124.792C47.6687 125.635 48.7788 125.893 49.6215 125.372C50.4642 124.851 50.7226 123.741 50.2015 122.898C45.4079 115.164 38.0044 111.2 29.7719 108.921C22.0922 106.796 13.6831 106.152 6.171 105.069Z" fill="#D1A6FD"/>
</svg>
