<svg width="168" height="56" viewBox="0 0 168 56" fill="none" xmlns="http://www.w3.org/2000/svg">
<g clip-path="url(#clip0_3_4666)">
<path d="M154.622 -6.21406e-05H13.386C12.8712 -6.21406e-05 12.3626 -6.21405e-05 11.8491 0.00273786C11.4193 0.00553786 10.9929 0.0136719 10.559 0.0205179C9.61624 0.0315804 8.67574 0.114285 7.74562 0.267912C6.81682 0.424884 5.91711 0.72082 5.07692 1.14571C4.23776 1.5742 3.471 2.13097 2.80445 2.79584C2.1344 3.45883 1.57586 4.22516 1.15031 5.06536C0.723586 5.90389 0.427694 6.80245 0.272854 7.73001C0.116542 8.6564 0.0324285 9.59347 0.0212695 10.5328C0.00824107 10.9621 0.00686522 11.3927 0 11.822V44.182C0.00686522 44.6167 0.00824107 45.0378 0.0212695 45.4726C0.0324319 46.4119 0.116545 47.349 0.272854 48.2753C0.427266 49.2034 0.723176 50.1025 1.15031 50.9413C1.57567 51.7788 2.13428 52.542 2.80445 53.2013C3.46847 53.8692 4.23573 54.4263 5.07692 54.8515C5.9171 55.2775 6.81671 55.5752 7.74562 55.7346C8.67589 55.887 9.6163 55.9698 10.559 55.9822C10.9929 55.9917 11.4193 55.9971 11.8491 55.9971C12.3625 55.9999 12.8712 55.9999 13.386 55.9999H154.622C155.126 55.9999 155.639 55.9999 156.143 55.9971C156.571 55.9971 157.01 55.9917 157.438 55.9822C158.379 55.9704 159.317 55.8877 160.246 55.7346C161.177 55.5741 162.08 55.2765 162.924 54.8515C163.765 54.4261 164.531 53.8689 165.195 53.2013C165.863 52.5395 166.423 51.7768 166.854 50.9413C167.278 50.1019 167.571 49.2029 167.723 48.2753C167.88 47.3488 167.967 46.412 167.984 45.4726C167.989 45.0378 167.989 44.6167 167.989 44.182C168 43.6734 168 43.1675 168 42.6507V13.3505C168 12.8378 168 12.3292 167.989 11.822C167.989 11.3927 167.989 10.9621 167.984 10.5328C167.967 9.59333 167.88 8.65647 167.723 7.72995C167.57 6.80293 167.277 5.90444 166.854 5.06531C165.987 3.38121 164.613 2.01037 162.924 1.14559C162.08 0.721732 161.177 0.425874 160.246 0.267786C159.317 0.113482 158.379 0.0307487 157.438 0.0203219C157.01 0.0134899 156.571 0.00528586 156.143 0.00255586C155.639 -0.000244141 155.126 -0.000244141 154.622 -0.000244141V-6.21406e-05Z" fill="#A6A6A6"/>
<path d="M11.8559 54.7751C11.4281 54.7751 11.0107 54.7696 10.5863 54.7601C9.70717 54.7487 8.83005 54.6724 7.96219 54.5318C7.15295 54.3928 6.36902 54.1343 5.63624 53.7647C4.91019 53.3982 4.24797 52.9177 3.67495 52.3415C3.09364 51.7721 2.60967 51.1116 2.24223 50.3864C1.87073 49.6564 1.61364 48.874 1.47989 48.0663C1.33546 47.1985 1.25732 46.3209 1.24614 45.4413C1.23724 45.146 1.22559 44.163 1.22559 44.163V11.8222C1.22559 11.8222 1.238 10.8542 1.24621 10.5698C1.25692 9.69157 1.3346 8.81541 1.4786 7.94892C1.61259 7.13905 1.86989 6.35435 2.24158 5.62198C2.60768 4.89722 3.08896 4.2363 3.66677 3.66485C4.24393 3.08797 4.90827 2.60494 5.63556 2.23339C6.36664 1.86503 7.1491 1.60832 7.9567 1.47188C8.82741 1.32987 9.70757 1.25309 10.5898 1.24219L11.8566 1.2251H156.136L157.418 1.24288C158.293 1.25324 159.165 1.32933 160.027 1.4705C160.843 1.60866 161.634 1.86716 162.373 2.23749C163.83 2.98628 165.016 4.17093 165.764 5.6254C166.13 6.35271 166.383 7.13101 166.515 7.93388C166.661 8.80749 166.742 9.69053 166.759 10.576C166.763 10.9725 166.763 11.3983 166.763 11.8222C166.774 12.3472 166.774 12.8469 166.774 13.3507V42.6508C166.774 43.1594 166.774 43.6557 166.763 44.1561C166.763 44.6114 166.763 45.0284 166.758 45.4577C166.741 46.3273 166.661 47.1946 166.518 48.0526C166.387 48.8661 166.131 49.6546 165.76 50.3906C165.39 51.108 164.908 51.7627 164.334 52.3306C163.76 52.9099 163.097 53.3932 162.369 53.7621C161.632 54.1344 160.842 54.3939 160.027 54.5318C159.16 54.6731 158.282 54.7494 157.403 54.7601C156.992 54.7696 156.561 54.7751 156.143 54.7751L154.621 54.7779L11.8559 54.7751Z" fill="black"/>
<path d="M34.7738 28.421C34.7889 27.2525 35.1001 26.1067 35.6786 25.0904C36.257 24.0741 37.0839 23.2202 38.0822 22.6081C37.448 21.7049 36.6114 20.9616 35.6387 20.4372C34.666 19.9128 33.5841 19.6218 32.4789 19.5874C30.1214 19.3406 27.8359 20.9941 26.6345 20.9941C25.4099 20.9941 23.5602 19.6119 21.5684 19.6527C20.2801 19.6942 19.0245 20.0678 17.924 20.7371C16.8234 21.4064 15.9156 22.3485 15.2887 23.4717C12.5735 28.1595 14.5988 35.049 17.1998 38.8383C18.5011 40.6937 20.0219 42.7664 22.0119 42.6929C23.9593 42.6123 24.6866 41.4546 27.0372 41.4546C29.3659 41.4546 30.0483 42.6929 32.0787 42.6461C34.1683 42.6123 35.4848 40.7824 36.7404 38.9093C37.6754 37.5872 38.3949 36.126 38.8722 34.5798C37.6582 34.0678 36.6222 33.2108 35.8934 32.1156C35.1646 31.0203 34.7752 29.7354 34.7738 28.421Z" fill="white"/>
<path d="M30.9388 17.0954C32.0781 15.7315 32.6394 13.9784 32.5035 12.2085C30.7629 12.3908 29.155 13.2204 28.0003 14.5319C27.4357 15.1727 27.0033 15.9181 26.7278 16.7256C26.4523 17.533 26.3391 18.3868 26.3946 19.2379C27.2652 19.2468 28.1265 19.0587 28.9137 18.6875C29.7008 18.3164 30.3932 17.772 30.9388 17.0954Z" fill="white"/>
<path d="M59.3894 37.9955H52.7441L51.1482 42.6945H48.3335L54.6279 25.3093H57.5523L63.8466 42.6945H60.9839L59.3894 37.9955ZM53.4323 35.8271H58.6999L56.1032 28.201H56.0305L53.4323 35.8271Z" fill="white"/>
<path d="M77.4404 36.3578C77.4404 40.2966 75.3262 42.8273 72.1359 42.8273C71.3277 42.8695 70.5239 42.6838 69.8167 42.2916C69.1094 41.8994 68.5271 41.3165 68.1366 40.6097H68.0762V46.8878H65.4672V30.0195H67.9926V32.1277H68.0406C68.4491 31.4242 69.0412 30.8444 69.7539 30.4498C70.4665 30.0552 71.2732 29.8607 72.0879 29.8869C75.3139 29.8869 77.4404 32.4298 77.4404 36.3578ZM74.7586 36.3578C74.7586 33.7916 73.4287 32.1044 71.3996 32.1044C69.4062 32.1044 68.0653 33.8271 68.0653 36.3578C68.0653 38.9117 69.4062 40.622 71.3996 40.622C73.4287 40.622 74.7586 38.9472 74.7586 36.3578Z" fill="white"/>
<path d="M91.4304 36.3578C91.4304 40.2966 89.3162 42.8273 86.1259 42.8273C85.3177 42.8694 84.5139 42.6838 83.8066 42.2916C83.0994 41.8994 82.5171 41.3165 82.1266 40.6097H82.0662V46.8878H79.4572V30.0195H81.9826V32.1277H82.0306C82.439 31.4242 83.0311 30.8444 83.7438 30.4498C84.4565 30.0552 85.2631 29.8607 86.0778 29.8869C89.3039 29.8869 91.4304 32.4298 91.4304 36.3578ZM88.7486 36.3578C88.7486 33.7916 87.4187 32.1044 85.3896 32.1044C83.3961 32.1044 82.0553 33.8271 82.0553 36.3578C82.0553 38.9117 83.3961 40.622 85.3896 40.622C87.4187 40.622 88.7486 38.9472 88.7486 36.3578H88.7486Z" fill="white"/>
<path d="M100.677 37.8507C100.87 39.5747 102.549 40.7067 104.844 40.7067C107.044 40.7067 108.626 39.5746 108.626 38.0201C108.626 36.6707 107.672 35.8627 105.412 35.309L103.153 34.7662C99.9513 33.9951 98.4651 32.5022 98.4651 30.0795C98.4651 27.0799 101.086 25.0195 104.809 25.0195C108.493 25.0195 111.018 27.0799 111.103 30.0795H108.469C108.312 28.3445 106.874 27.2973 104.772 27.2973C102.67 27.2973 101.232 28.3568 101.232 29.899C101.232 31.1281 102.15 31.8514 104.397 32.405L106.318 32.8753C109.895 33.7189 111.381 35.1518 111.381 37.6947C111.381 40.9472 108.783 42.9843 104.651 42.9843C100.785 42.9843 98.1744 40.9951 98.0057 37.8505L100.677 37.8507Z" fill="white"/>
<path d="M117.012 27.0198V30.0194H119.429V32.0797H117.012V39.0674C117.012 40.153 117.496 40.6588 118.559 40.6588C118.846 40.6538 119.132 40.6338 119.417 40.5986V42.6467C118.939 42.7357 118.454 42.776 117.968 42.767C115.394 42.767 114.391 41.8031 114.391 39.3449V32.0797H112.543V30.0194H114.391V27.0198H117.012Z" fill="white"/>
<path d="M120.829 36.3577C120.829 32.3696 123.185 29.8635 126.858 29.8635C130.543 29.8635 132.887 32.3695 132.887 36.3577C132.887 40.3567 130.555 42.8518 126.858 42.8518C123.161 42.8518 120.829 40.3567 120.829 36.3577ZM130.229 36.3577C130.229 33.6219 128.972 32.0073 126.858 32.0073C124.743 32.0073 123.488 33.6342 123.488 36.3577C123.488 39.1043 124.743 40.7067 126.858 40.7067C128.972 40.7067 130.229 39.1043 130.229 36.3577H130.229Z" fill="white"/>
<path d="M135.039 30.0194H137.527V32.1768H137.587C137.756 31.503 138.152 30.9075 138.708 30.4905C139.265 30.0734 139.949 29.8602 140.645 29.8867C140.945 29.8857 141.245 29.9182 141.539 29.9838V32.4174C141.159 32.3017 140.763 32.2486 140.366 32.2602C139.987 32.2448 139.609 32.3115 139.259 32.4555C138.908 32.5996 138.593 32.8176 138.334 33.0946C138.076 33.3717 137.881 33.7012 137.762 34.0605C137.644 34.4199 137.605 34.8005 137.648 35.1764V42.6945H135.039L135.039 30.0194Z" fill="white"/>
<path d="M153.568 38.9717C153.217 41.2727 150.97 42.8518 148.095 42.8518C144.397 42.8518 142.102 40.3813 142.102 36.4178C142.102 32.442 144.409 29.8635 147.985 29.8635C151.502 29.8635 153.713 32.2725 153.713 36.1157V37.0071H144.736V37.1643C144.694 37.6308 144.753 38.1007 144.908 38.5429C145.062 38.9851 145.31 39.3894 145.633 39.7289C145.956 40.0685 146.349 40.3356 146.783 40.5124C147.218 40.6892 147.686 40.7718 148.155 40.7545C148.772 40.8121 149.39 40.6697 149.919 40.3485C150.448 40.0273 150.859 39.5444 151.091 38.9717L153.568 38.9717ZM144.748 35.1887H151.103C151.126 34.7693 151.062 34.3495 150.916 33.9559C150.769 33.5622 150.542 33.203 150.249 32.9009C149.956 32.5989 149.604 32.3604 149.214 32.2005C148.825 32.0406 148.406 31.9627 147.985 31.9717C147.56 31.9692 147.139 32.0506 146.746 32.2112C146.353 32.3719 145.995 32.6086 145.694 32.9077C145.394 33.2067 145.155 33.5623 144.993 33.9538C144.83 34.3453 144.747 34.765 144.748 35.1887V35.1887Z" fill="white"/>
<path d="M53.1053 12.2233C53.6523 12.1842 54.2012 12.2666 54.7124 12.4646C55.2236 12.6626 55.6843 12.9713 56.0614 13.3684C56.4385 13.7654 56.7225 14.241 56.8929 14.7608C57.0633 15.2806 57.116 15.8316 57.047 16.3741C57.047 19.0429 55.6006 20.5769 53.1053 20.5769H50.0795V12.2233H53.1053ZM51.3806 19.3955H52.96C53.3508 19.4188 53.742 19.3549 54.105 19.2085C54.4679 19.062 54.7936 18.8367 55.0582 18.5489C55.3229 18.2611 55.5198 17.9181 55.6347 17.5448C55.7497 17.1716 55.7797 16.7774 55.7226 16.3911C55.7755 16.0064 55.7425 15.6147 55.6258 15.2442C55.5091 14.8736 55.3117 14.5334 55.0476 14.2479C54.7836 13.9624 54.4595 13.7387 54.0986 13.5928C53.7377 13.4468 53.3488 13.3823 52.96 13.4038H51.3806V19.3955Z" fill="white"/>
<path d="M58.5168 17.4221C58.477 17.0078 58.5246 16.5898 58.6563 16.1949C58.7881 15.8 59.0011 15.4369 59.2818 15.1289C59.5625 14.8209 59.9047 14.5749 60.2863 14.4065C60.668 14.2381 61.0807 14.1511 61.4981 14.1511C61.9154 14.1511 62.3282 14.2381 62.7098 14.4065C63.0915 14.5749 63.4336 14.8209 63.7143 15.1289C63.9951 15.4369 64.2081 15.8 64.3399 16.1949C64.4716 16.5898 64.5191 17.0078 64.4794 17.4221C64.5199 17.8368 64.4729 18.2553 64.3415 18.6509C64.2101 19.0464 63.9972 19.4102 63.7164 19.7187C63.4356 20.0273 63.0932 20.2739 62.7112 20.4426C62.3291 20.6114 61.9159 20.6986 61.4981 20.6986C61.0802 20.6986 60.667 20.6114 60.285 20.4426C59.9029 20.2739 59.5605 20.0273 59.2797 19.7187C58.999 19.4102 58.786 19.0464 58.6546 18.6509C58.5232 18.2553 58.4763 17.8368 58.5168 17.4221ZM63.1961 17.4221C63.1961 16.0556 62.5805 15.2564 61.5001 15.2564C60.4157 15.2564 59.8056 16.0556 59.8056 17.4221C59.8056 18.7995 60.4157 19.5925 61.5001 19.5925C62.5805 19.5925 63.1961 18.794 63.1961 17.4221H63.1961Z" fill="white"/>
<path d="M72.4053 20.5768H71.111L69.8044 15.9338H69.7057L68.4046 20.5768H67.1227L65.3801 14.2727H66.6456L67.7781 19.0831H67.8713L69.171 14.2727H70.3679L71.6677 19.0831H71.7664L72.8933 14.2727H74.141L72.4053 20.5768Z" fill="white"/>
<path d="M75.6066 14.2727H76.8076V15.2741H76.9008C77.059 14.9144 77.3257 14.6129 77.6639 14.4116C78.0021 14.2103 78.3948 14.1192 78.7874 14.151C79.095 14.1279 79.4038 14.1742 79.6911 14.2863C79.9783 14.3984 80.2366 14.5736 80.4467 14.7988C80.6568 15.0239 80.8135 15.2934 80.905 15.5871C80.9966 15.8809 81.0207 16.1914 80.9755 16.4957V20.5767H79.7279V16.8081C79.7279 15.795 79.2864 15.2912 78.3637 15.2912C78.1549 15.2815 77.9464 15.317 77.7526 15.3951C77.5587 15.4733 77.3842 15.5923 77.2408 15.7441C77.0974 15.8958 76.9886 16.0767 76.9219 16.2742C76.8552 16.4718 76.8321 16.6815 76.8542 16.8888V20.5768H75.6066L75.6066 14.2727Z" fill="white"/>
<path d="M82.9635 11.8118H84.2111V20.5768H82.9635V11.8118Z" fill="white"/>
<path d="M85.9455 17.4219C85.9058 17.0076 85.9533 16.5896 86.0851 16.1947C86.2169 15.7998 86.43 15.4367 86.7107 15.1287C86.9914 14.8207 87.3336 14.5746 87.7153 14.4063C88.097 14.2379 88.5097 14.1509 88.9271 14.1509C89.3445 14.1509 89.7572 14.2379 90.1389 14.4063C90.5206 14.5746 90.8628 14.8207 91.1435 15.1287C91.4243 15.4367 91.6373 15.7998 91.7691 16.1947C91.9009 16.5896 91.9485 17.0076 91.9087 17.4219C91.9492 17.8367 91.9022 18.2552 91.7707 18.6508C91.6393 19.0463 91.4263 19.41 91.1455 19.7186C90.8647 20.0272 90.5223 20.2738 90.1402 20.4425C89.7582 20.6112 89.345 20.6984 88.9271 20.6984C88.5093 20.6984 88.096 20.6112 87.714 20.4425C87.3319 20.2738 86.9895 20.0272 86.7087 19.7186C86.4279 19.41 86.2149 19.0463 86.0835 18.6508C85.952 18.2552 85.905 17.8367 85.9455 17.4219ZM90.6248 17.4219C90.6248 16.0554 90.0092 15.2563 88.9288 15.2563C87.8443 15.2563 87.2343 16.0554 87.2343 17.4219C87.2343 18.7994 87.8444 19.5923 88.9288 19.5923C90.0092 19.5923 90.6248 18.7939 90.6248 17.4219H90.6248Z" fill="white"/>
<path d="M93.2222 18.7941C93.2222 17.6593 94.0695 17.0051 95.5735 16.9121L97.2859 16.8137V16.2696C97.2859 15.6038 96.8444 15.2278 95.9916 15.2278C95.2952 15.2278 94.8126 15.4828 94.6741 15.9285H93.4662C93.5937 14.8456 94.6151 14.1511 96.0492 14.1511C97.6341 14.1511 98.528 14.9379 98.528 16.2696V20.5769H97.327V19.691H97.2283C97.0279 20.0088 96.7466 20.2678 96.413 20.4417C96.0794 20.6156 95.7055 20.6981 95.3294 20.6808C95.064 20.7083 94.7958 20.6801 94.542 20.5979C94.2883 20.5157 94.0546 20.3814 93.856 20.2036C93.6575 20.0259 93.4985 19.8086 93.3893 19.5658C93.2802 19.3231 93.2232 19.0602 93.2222 18.7941ZM97.2859 18.2554V17.7284L95.7421 17.8268C94.8715 17.8849 94.4766 18.1802 94.4766 18.736C94.4766 19.3033 94.9702 19.6335 95.6489 19.6335C95.8478 19.6536 96.0487 19.6336 96.2396 19.5746C96.4305 19.5157 96.6077 19.4191 96.7604 19.2905C96.9131 19.1619 97.0383 19.004 97.1286 18.8262C97.2189 18.6484 97.2724 18.4543 97.2859 18.2554Z" fill="white"/>
<path d="M100.168 17.422C100.168 15.4301 101.195 14.1681 102.792 14.1681C103.187 14.15 103.579 14.2443 103.922 14.4402C104.266 14.6361 104.546 14.9253 104.731 15.2741H104.824V11.8118H106.071V20.5768H104.876V19.5808H104.777C104.578 19.9273 104.288 20.2129 103.938 20.4068C103.589 20.6007 103.192 20.6954 102.792 20.6807C101.184 20.6808 100.168 19.4188 100.168 17.422ZM101.457 17.422C101.457 18.7592 102.089 19.5637 103.146 19.5637C104.197 19.5637 104.847 18.7475 104.847 17.4275C104.847 16.1136 104.19 15.2858 103.146 15.2858C102.096 15.2858 101.457 16.0959 101.457 17.422H101.457Z" fill="white"/>
<path d="M111.233 17.4221C111.194 17.0078 111.241 16.5898 111.373 16.1949C111.505 15.8 111.718 15.4369 111.998 15.1289C112.279 14.8209 112.621 14.5749 113.003 14.4065C113.385 14.2381 113.797 14.1511 114.215 14.1511C114.632 14.1511 115.045 14.2381 115.426 14.4065C115.808 14.5749 116.15 14.8209 116.431 15.1289C116.712 15.4369 116.925 15.8 117.056 16.1949C117.188 16.5898 117.236 17.0078 117.196 17.4221C117.236 17.8368 117.189 18.2553 117.058 18.6509C116.927 19.0464 116.714 19.4102 116.433 19.7187C116.152 20.0273 115.81 20.2739 115.428 20.4426C115.046 20.6114 114.632 20.6986 114.215 20.6986C113.797 20.6986 113.384 20.6114 113.002 20.4426C112.619 20.2739 112.277 20.0273 111.996 19.7187C111.716 19.4102 111.503 19.0464 111.371 18.6509C111.24 18.2553 111.193 17.8368 111.233 17.4221ZM115.913 17.4221C115.913 16.0556 115.297 15.2564 114.217 15.2564C113.132 15.2564 112.522 16.0556 112.522 17.4221C112.522 18.7995 113.132 19.5925 114.217 19.5925C115.297 19.5925 115.913 18.794 115.913 17.4221Z" fill="white"/>
<path d="M118.87 14.2727H120.071V15.2741H120.164C120.322 14.9144 120.589 14.6129 120.927 14.4116C121.265 14.2103 121.658 14.1192 122.051 14.151C122.358 14.1279 122.667 14.1742 122.954 14.2863C123.242 14.3984 123.5 14.5736 123.71 14.7988C123.92 15.0239 124.077 15.2934 124.168 15.5871C124.26 15.8809 124.284 16.1914 124.239 16.4957V20.5767H122.991V16.8081C122.991 15.795 122.55 15.2912 121.627 15.2912C121.418 15.2815 121.21 15.317 121.016 15.3951C120.822 15.4733 120.648 15.5923 120.504 15.7441C120.361 15.8958 120.252 16.0767 120.185 16.2742C120.119 16.4718 120.096 16.6815 120.118 16.8888V20.5768H118.87V14.2727Z" fill="white"/>
<path d="M131.289 12.7031V14.3014H132.658V15.3493H131.289V18.5909C131.289 19.2513 131.562 19.5404 132.183 19.5404C132.342 19.5399 132.5 19.5303 132.658 19.5117V20.548C132.434 20.588 132.207 20.6093 131.98 20.6116C130.592 20.6116 130.04 20.1249 130.04 18.9095V15.3493H129.036V14.3013H130.04V12.7031H131.289Z" fill="white"/>
<path d="M134.363 11.8118H135.599V15.2858H135.698C135.864 14.9227 136.138 14.6195 136.483 14.4174C136.828 14.2153 137.227 14.1242 137.626 14.1565C137.932 14.1399 138.237 14.1908 138.521 14.3057C138.805 14.4206 139.06 14.5965 139.268 14.821C139.476 15.0454 139.632 15.3129 139.724 15.6043C139.817 15.8957 139.844 16.2038 139.803 16.5067V20.5768H138.554V16.8136C138.554 15.8067 138.084 15.2967 137.202 15.2967C136.988 15.2792 136.772 15.3086 136.57 15.3829C136.368 15.4571 136.185 15.5745 136.033 15.7267C135.882 15.879 135.765 16.0624 135.692 16.2642C135.619 16.466 135.591 16.6812 135.61 16.895V20.5768H134.363L134.363 11.8118Z" fill="white"/>
<path d="M147.077 18.8746C146.908 19.4508 146.541 19.9491 146.04 20.2826C145.539 20.616 144.937 20.7632 144.338 20.6984C143.922 20.7094 143.508 20.6298 143.125 20.4653C142.743 20.3008 142.4 20.0552 142.123 19.7456C141.845 19.436 141.638 19.0698 141.516 18.6725C141.394 18.2751 141.361 17.8561 141.418 17.4445C141.362 17.0317 141.396 16.6118 141.518 16.2133C141.639 15.8147 141.845 15.4468 142.122 15.1345C142.398 14.8222 142.738 14.5728 143.12 14.4031C143.501 14.2334 143.915 14.1474 144.333 14.151C146.092 14.151 147.153 15.3494 147.153 17.329V17.7631H142.689V17.8328C142.669 18.0642 142.698 18.297 142.774 18.5165C142.85 18.7359 142.971 18.9371 143.13 19.1072C143.289 19.2772 143.481 19.4123 143.695 19.5039C143.909 19.5954 144.14 19.6414 144.372 19.6388C144.671 19.6746 144.973 19.621 145.241 19.4849C145.509 19.3488 145.73 19.1363 145.876 18.8746L147.077 18.8746ZM142.689 16.843H145.882C145.898 16.6314 145.869 16.4189 145.797 16.2191C145.726 16.0193 145.613 15.8366 145.466 15.6828C145.32 15.529 145.143 15.4075 144.946 15.326C144.75 15.2446 144.538 15.205 144.326 15.2099C144.11 15.2072 143.896 15.2476 143.696 15.3287C143.496 15.4098 143.314 15.53 143.162 15.6822C143.009 15.8344 142.889 16.0155 142.808 16.2149C142.726 16.4142 142.686 16.6278 142.689 16.843H142.689Z" fill="white"/>
</g>
<defs>
<clipPath id="clip0_3_4666">
<rect width="168" height="56" fill="white"/>
</clipPath>
</defs>
</svg>
