<svg width="40" height="40" viewBox="0 0 40 40" fill="none" xmlns="http://www.w3.org/2000/svg">
<path d="M36.6667 21.6667V15C36.6667 6.66671 33.3334 3.33337 25 3.33337H15C6.66671 3.33337 3.33337 6.66671 3.33337 15V25C3.33337 33.3334 6.66671 36.6667 15 36.6667H21.6667" stroke="#FFAB5C" stroke-width="2.5" stroke-linecap="round" stroke-linejoin="round"/>
<path d="M36.6667 21.6667V15C36.6667 6.66671 33.3334 3.33337 25 3.33337H15C6.66671 3.33337 3.33337 6.66671 3.33337 15V25C3.33337 33.3334 6.66671 36.6667 15 36.6667H21.6667" stroke="#FFAB5C" stroke-width="2.5" stroke-linecap="round" stroke-linejoin="round"/>
<path d="M36.6667 21.6667V15C36.6667 6.66671 33.3334 3.33337 25 3.33337H15C6.66671 3.33337 3.33337 6.66671 3.33337 15V25C3.33337 33.3334 6.66671 36.6667 15 36.6667H21.6667" stroke="#FFAB5C" stroke-width="2.5" stroke-linecap="round" stroke-linejoin="round"/>
<path d="M26.6666 32.3834L29.3 35L35 28.3334" stroke="#FFAB5C" stroke-width="2.5" stroke-linecap="round" stroke-linejoin="round"/>
<path d="M11.6666 17.5V22.5" stroke="#FFAB5C" stroke-width="2.5" stroke-linecap="round" stroke-linejoin="round"/>
<path d="M20 17.5V22.5" stroke="#FFAB5C" stroke-width="2.5" stroke-linecap="round" stroke-linejoin="round"/>
<path d="M28.3334 17.5V22.5" stroke="#FFAB5C" stroke-width="2.5" stroke-linecap="round" stroke-linejoin="round"/>
</svg>
