<svg width="44" height="44" viewBox="0 0 44 44" fill="none" xmlns="http://www.w3.org/2000/svg">
<path d="M39.71 19.14L37.9134 26.8033C36.3734 33.4217 33.33 36.0983 27.61 35.5483C26.6934 35.475 25.7034 35.31 24.64 35.0533L21.56 34.32C13.915 32.505 11.55 28.7283 13.3467 21.065L15.1434 13.3833C15.51 11.825 15.95 10.4683 16.5 9.35C18.645 4.91333 22.2934 3.72167 28.4167 5.17L31.4784 5.885C39.16 7.68167 41.5067 11.4767 39.71 19.14Z" stroke="#FFAB5C" stroke-width="2.5" stroke-linecap="round" stroke-linejoin="round"/>
<path d="M27.61 35.5483C26.4734 36.3183 25.0434 36.96 23.3017 37.5283L20.405 38.4817C13.1267 40.8283 9.29502 38.8667 6.93002 31.5883L4.58335 24.3467C2.23668 17.0683 4.18001 13.2183 11.4583 10.8717L14.355 9.91833C15.1067 9.68 15.8217 9.47833 16.5 9.35C15.95 10.4683 15.51 11.825 15.1433 13.3833L13.3467 21.065C11.55 28.7283 13.915 32.505 21.56 34.32L24.64 35.0533C25.7034 35.31 26.6934 35.475 27.61 35.5483Z" stroke="#FFAB5C" stroke-width="2.5" stroke-linecap="round" stroke-linejoin="round"/>
<path d="M23.1733 15.6383L32.065 17.8933" stroke="#FFAB5C" stroke-width="2.5" stroke-linecap="round" stroke-linejoin="round"/>
<path d="M21.3767 22.7333L26.6934 24.09" stroke="#FFAB5C" stroke-width="2.5" stroke-linecap="round" stroke-linejoin="round"/>
</svg>
