<svg width="443" height="28" viewBox="0 0 443 28" fill="none" xmlns="http://www.w3.org/2000/svg">
<path fill-rule="evenodd" clip-rule="evenodd" d="M146.892 3.20083C98.045 2.63846 48.9986 4.69366 1.71852 13.3235C0.87496 13.4769 0.524771 13.7785 0.455753 13.8475C0.0518681 14.2565 0.00833726 14.6911 0.0594619 15.049C0.0901367 15.2662 0.297281 16.1839 1.42969 16.2785C2.2119 16.3424 7.76395 15.8951 9.90607 15.78C19.9904 15.2407 30.0544 14.4713 40.1132 13.5817C62.9199 11.5725 85.6958 9.83425 108.538 8.25194C121.363 7.36238 134.193 6.62616 147.015 6.02289C177.861 6.38332 208.63 7.78927 238.824 9.2412C226.823 9.97996 215.795 10.7289 206.652 11.2146C191.233 12.0326 175.841 12.9988 160.453 14.2719C152.546 14.9237 144.65 15.6318 136.759 16.4677C135.885 16.5623 133.894 16.6594 132.93 16.7744C132.521 16.8204 132.224 16.8946 132.091 16.9457C131.258 17.2678 131.153 17.9273 131.143 18.2596C131.138 18.4615 131.207 19.5633 132.613 19.778C197.983 29.8547 266.184 18.1318 331.789 27.9273C332.559 28.0423 333.28 27.5106 333.395 26.7386C333.51 25.9692 332.978 25.2483 332.206 25.1333C270.417 15.9078 206.324 25.7723 144.456 18.5305C149.862 18.0065 155.271 17.5336 160.685 17.0863C176.046 15.8158 191.409 14.8521 206.802 14.0341C222.293 13.2136 243.234 11.6108 265.154 10.6011C283.965 11.6492 302.766 12.825 321.58 13.822C329.517 14.2412 337.457 14.5888 345.391 15.0157C348.653 15.1895 357.045 15.9181 358.262 15.6471C359.208 15.4349 359.435 14.7576 359.491 14.4176C359.55 14.0495 359.514 13.5919 359.085 13.1548C358.952 13.0167 358.553 12.7305 357.735 12.4953C335.611 6.15838 299.384 6.25807 265.455 7.78925C258.157 7.38025 250.859 6.99171 243.559 6.64151C226.846 5.83629 209.949 5.02851 192.955 4.39201C240.846 3.20847 288.76 3.54847 336.687 4.4048C356.81 4.76523 411.051 6.93804 432.413 8.85777C432.152 9.12617 431.999 9.49938 432.017 9.90582C432.053 10.6829 432.715 11.2862 433.494 11.2504C437.901 11.0459 440.45 10.7852 441.459 10.5168C442.088 10.3506 442.431 10.0848 442.589 9.91094C442.978 9.49171 443.049 9.0418 442.973 8.61491C442.924 8.34906 442.804 8.05766 442.528 7.78925C442.344 7.6052 441.894 7.32403 441.127 7.13231C432.73 5.04387 360.698 2.0096 336.738 1.58015C273.423 0.450299 210.133 0.220261 146.892 3.20083ZM340.608 11.938C328.236 10.2586 313.732 9.66808 298.602 9.70642C306.309 10.1538 314.019 10.5909 321.731 10.9999C328.022 11.3348 334.315 11.621 340.608 11.938ZM88.5384 6.84858C72.3063 8.04489 56.0921 9.33834 39.8652 10.7698C37.9914 10.9334 36.1203 11.0945 34.2466 11.253C52.1913 9.0546 70.3227 7.65634 88.5384 6.84858Z" fill="#E3CAFE"/>
</svg>
